<svg width="16" height="16" viewBox="0 0 16 16" fill="none" xmlns="http://www.w3.org/2000/svg">
<path d="M12 5.33325H12.6667C13.3739 5.33325 14.0522 5.6142 14.5523 6.1143C15.0524 6.6144 15.3333 7.29267 15.3333 7.99992C15.3333 8.70716 15.0524 9.38544 14.5523 9.88554C14.0522 10.3856 13.3739 10.6666 12.6667 10.6666H12" stroke="white" stroke-linecap="round" stroke-linejoin="round"/>
<path d="M1.3335 5.33325H12.0002V11.3333C12.0002 12.0405 11.7192 12.7188 11.2191 13.2189C10.719 13.719 10.0407 13.9999 9.3335 13.9999H4.00016C3.29292 13.9999 2.61464 13.719 2.11454 13.2189C1.61445 12.7188 1.3335 12.0405 1.3335 11.3333V5.33325Z" stroke="white" stroke-linecap="round" stroke-linejoin="round"/>
<path d="M4 0.666748V2.66675" stroke="white" stroke-linecap="round" stroke-linejoin="round"/>
<path d="M6.6665 0.666748V2.66675" stroke="white" stroke-linecap="round" stroke-linejoin="round"/>
<path d="M9.3335 0.666748V2.66675" stroke="white" stroke-linecap="round" stroke-linejoin="round"/>
</svg>
